<svg id="Layer_1" data-name="Layer 1" xmlns="http://www.w3.org/2000/svg" viewBox="0 0 424.43 277.79"><defs><style>.cls-1,.cls-2{fill:#231f20;}.cls-2{font-size:11px;font-family:Montserrat-Regular, Montserrat;letter-spacing:0.02em;}.cls-3{letter-spacing:0.08em;}.cls-4{letter-spacing:0.06em;}.cls-5{letter-spacing:0.08em;}</style></defs><title>logo</title><path class="cls-1" d="M260,155.52a65.84,65.84,0,1,0,65.84,65.84A65.92,65.92,0,0,0,260,155.52Zm18.92,102.33-25.23-35.39L242.21,233.3v24.55h-9.3V187.42h9.3V221.9l35.23-34.47h13.34l-30.09,28.42,30.71,42Z" transform="translate(-47.78 -132.22)"/><path class="cls-1" d="M260,132.22a89.13,89.13,0,0,0-51.24,162.06l-37.9,16.22H260a89.14,89.14,0,0,0,0-178.28Zm0,163.59a74.45,74.45,0,1,1,74.45-74.45A74.53,74.53,0,0,1,260,295.81Z" transform="translate(-47.78 -132.22)"/><path class="cls-1" d="M93.05,352.23,89.64,356v6.31H83.11V336.65h6.53v11.11l9.83-11.11H107l-9.53,10.63,10.16,15H99.84Z" transform="translate(-47.78 -132.22)"/><path class="cls-1" d="M132.75,354.14h-13.9a4.57,4.57,0,0,0,4.66,3.67,6.68,6.68,0,0,0,4.73-2l3.34,3.26a11.35,11.35,0,0,1-8.62,3.49c-6.45,0-10.49-4-10.49-10s4.18-10.16,10.3-10.16C129.75,342.33,133.19,346.91,132.75,354.14Zm-6.09-3.41a3.69,3.69,0,0,0-3.81-4c-2.2,0-3.7,1.61-4.11,4Z" transform="translate(-47.78 -132.22)"/><path class="cls-1" d="M160,349.85v12.47h-6.31V351.61c0-2.31-1.36-3.74-3.48-3.74-2.31,0-3.78,1.65-4,4v10.45h-6.34V342.55h6.34v3.23a7.33,7.33,0,0,1,6.6-3.52C157.17,342.26,160,345.23,160,349.85Z" transform="translate(-47.78 -132.22)"/><path class="cls-1" d="M188.1,362.31h-6.34v-2.6a7.16,7.16,0,0,1-5.94,2.86c-5.57,0-9.24-4.11-9.24-10.23s3.63-10,9.09-10a7.34,7.34,0,0,1,6.09,2.86v-10h6.34Zm-6.34-9.83c0-3-1.76-5.13-4.4-5.13s-4.4,2.09-4.44,5.13,1.8,5.17,4.44,5.17S181.76,355.53,181.76,352.49Z" transform="translate(-47.78 -132.22)"/><path class="cls-1" d="M203.35,345.89a7.21,7.21,0,0,1,6.42-3.63V348c-3.67-.33-6.09,1.39-6.42,4.18v10.16H197V342.55h6.34Z" transform="translate(-47.78 -132.22)"/><path class="cls-1" d="M222.85,336.87a3.34,3.34,0,1,1-3.34-3.34A3.23,3.23,0,0,1,222.85,336.87Zm-6.53,25.45V342.55h6.31v19.76Z" transform="translate(-47.78 -132.22)"/><path class="cls-1" d="M248.8,346.77l-4.55,2.75a4.74,4.74,0,0,0-4-2.05c-2.46,0-4.14,2-4.14,5s1.69,5,4.14,5a4.32,4.32,0,0,0,4-2.24l4.62,2.71c-1.61,2.9-4.8,4.58-9,4.58-6.09,0-10.19-4-10.19-10s4.14-10.16,10.27-10.16C243.93,342.33,247.08,343.94,248.8,346.77Z" transform="translate(-47.78 -132.22)"/><path class="cls-1" d="M262.18,356.92v5.39h-6.34V335.1h6.34v14.38l6.53-6.93h7.19l-7.26,7.59,7.48,12.17H268.6l-4.29-7.63Z" transform="translate(-47.78 -132.22)"/><path class="cls-1" d="M317,340.75l-3.78,4.47a8.78,8.78,0,0,0-6.45-3.34,7.51,7.51,0,0,0,0,15,9.62,9.62,0,0,0,6.45-3l3.81,4a15.5,15.5,0,0,1-10.6,4.69c-7.74,0-13.49-5.68-13.49-13.2s5.9-13,13.71-13A14.9,14.9,0,0,1,317,340.75Z" transform="translate(-47.78 -132.22)"/><path class="cls-1" d="M341.1,349.41v12.91h-6.2V360a7.23,7.23,0,0,1-6.05,2.57c-4.22,0-6.78-2.57-6.78-6.2s2.68-5.94,7.59-6h5.21v-.29c0-1.94-1.28-3.12-3.85-3.12a13.91,13.91,0,0,0-5.9,1.65l-1.8-4.18a20.86,20.86,0,0,1,9.17-2.24C337.91,342.26,341.06,344.93,341.1,349.41Zm-6.24,6.2v-1.76h-4c-1.91,0-2.86.66-2.86,2.13s1,2.35,2.79,2.35A4,4,0,0,0,334.87,355.6Z" transform="translate(-47.78 -132.22)"/><path class="cls-1" d="M355.61,345.89a7.21,7.21,0,0,1,6.42-3.63V348c-3.67-.33-6.09,1.39-6.42,4.18v10.16h-6.34V342.55h6.34Z" transform="translate(-47.78 -132.22)"/><path class="cls-1" d="M374.93,345.89a7.22,7.22,0,0,1,6.42-3.63V348c-3.67-.33-6.09,1.39-6.42,4.18v10.16h-6.34V342.55h6.34Z" transform="translate(-47.78 -132.22)"/><path class="cls-1" d="M407.85,352.41c0,6.09-4.33,10.12-10.78,10.12s-10.82-4-10.82-10.12,4.33-10.09,10.82-10.09S407.85,346.33,407.85,352.41Zm-15.22.07c0,3.08,1.8,5.13,4.44,5.13s4.4-2.05,4.4-5.13-1.8-5.13-4.4-5.13S392.63,349.44,392.63,352.49Z" transform="translate(-47.78 -132.22)"/><path class="cls-1" d="M415.1,362.31V335.1h6.34v27.21Z" transform="translate(-47.78 -132.22)"/><path class="cls-1" d="M430.54,362.31V335.1h6.34v27.21Z" transform="translate(-47.78 -132.22)"/><text class="cls-2" transform="translate(148.57 254.35)">UI/UX<tspan class="cls-3" x="35.29" y="0" xml:space="preserve"> DEVE</tspan><tspan class="cls-4" x="73.39" y="0">L</tspan><tspan class="cls-5" x="80.28" y="0">OPER &amp; </tspan><tspan class="cls-5"><tspan x="0.05" y="13.2">GRAPHIC DESIGNER</tspan></tspan></text><text x="-47.78" y="-132.22"></text></svg>